<svg xmlns="http://www.w3.org/2000/svg" version="1.1" xmlns:xlink="http://www.w3.org/1999/xlink" width="1000" height="1000"><style>
    #light-icon {
      display: inline;
    }
    #dark-icon {
      display: none;
    }

    @media (prefers-color-scheme: dark) {
      #light-icon {
        display: none;
      }
      #dark-icon {
        display: inline;
      }
    }
  </style><g id="light-icon"><svg xmlns="http://www.w3.org/2000/svg" version="1.1" xmlns:xlink="http://www.w3.org/1999/xlink" width="1000" height="1000"><g clip-path="url(#SvgjsClipPath1555)"><rect width="1000" height="1000" fill="#000000"></rect><g transform="matrix(1.075268817204301,0,0,1.075268817204301,100,100)"><svg xmlns="http://www.w3.org/2000/svg" version="1.1" xmlns:xlink="http://www.w3.org/1999/xlink" width="744" height="744"><svg version="1.2" xmlns="http://www.w3.org/2000/svg" viewBox="0 0 744 744" width="744" height="744">
	<style>
		.s0 { fill: #f2c41f } 
		.s1 { fill: #eeeeee } 
	</style>
	<g>
		<path class="s0" d="m533.06 685.41c-8.49-5.2-17.27-10.51-19.5-11.8-13.42-7.79-31.59-18.46-57.56-33.82-16.23-9.6-33.85-20-39.17-23.11-8.56-5-10.32-6.54-15.27-13.32-3.08-4.21-5.37-7.88-5.1-8.16 0.66-0.66 10.61 4.65 23.04 12.28 5.5 3.38 17.2 10.35 26 15.49 8.8 5.14 34.76 20.53 57.69 34.19 22.94 13.66 41.95 24.84 42.25 24.84 0.31 0 0.56-3.32 0.56-7.38v-7.37l-13.25-7.82c-7.29-4.29-29.9-17.69-50.25-29.76-20.35-12.08-43.75-25.88-52-30.68-41.09-23.88-53.19-31.27-55.32-33.77-5.64-6.6-10.41-13.32-9.86-13.87 0.67-0.67 13.93 6.57 32.68 17.84 6.88 4.14 20.38 12.14 30 17.78 9.62 5.65 23.12 13.66 30 17.8 12.1 7.29 22.23 13.32 45.67 27.14 6.15 3.62 18.93 11.26 28.4 16.97 9.48 5.71 18.04 10.6 19.02 10.85 0.99 0.26 6.66-0.97 12.6-2.74 5.95-1.77 16.43-4.75 23.31-6.62 6.88-1.87 13.14-3.64 13.93-3.92 2.65-0.97 1.71-1.57-26.93-17.37-7.57-4.17-22.87-12.66-40.81-22.64-6.98-3.88-21.92-12.17-33.19-18.42-11.27-6.25-22.08-12.25-24-13.33-1.92-1.08-6.42-3.55-10-5.49-6.57-3.55-12.66-6.96-48-26.92-22.18-12.52-43.34-24.33-56.5-31.54-22.01-12.05-22.87-12.94-13.84-14.31 3.96-0.6 5.58 0.16 34.5 16.11 47.95 26.46 74.4 41.12 101.84 56.43 14.02 7.83 28.37 15.79 31.88 17.69 3.5 1.89 12.28 6.86 19.5 11.02 24.15 13.94 72.94 40.32 74.56 40.32 0.56 0 1.37-1.24 1.79-2.75 0.42-1.51 0.77-26.03 0.77-54.48v-51.72l-2.71-2.71-2.71-2.71-7.79 1.19c-4.28 0.65-17.49 3.02-29.35 5.26l-21.56 4.08-13.44-7.42c-7.39-4.07-21.54-11.83-31.44-17.23-9.9-5.41-28.35-15.54-41-22.51-12.65-6.98-29.15-15.91-36.67-19.84l-13.66-7.16h-95.71l-6.82 13.25c-3.74 7.29-11.13 21.8-16.41 32.25-5.28 10.45-10.08 19.33-10.66 19.73-1.36 0.94-72.47 0.87-74.84-0.07-0.35-0.14-0.68-0.16-0.87-0.33-0.81-0.76 1.14-4.49 16.66-34.22q1.97-3.76 4.23-8.11c6.89-13.2 16-30.52 20.25-38.5 4.26-7.98 13.94-26.42 21.52-41 7.58-14.58 22.42-42.92 32.98-63 10.56-20.08 25.4-48.42 32.99-63 7.58-14.58 18.98-36.4 25.31-48.5 13.67-26.09 11.67-22.21 19.13-37.17 3.34-6.7 6.07-12.44 6.07-12.75 0-0.32-6.94-0.58-15.41-0.58h-15.42l-7.74 14.75c-21.3 40.56-38.87 74.21-54.16 103.75-7.98 15.4-16.87 32.27-19.77 37.5-2.9 5.23-7.27 13.55-9.71 18.5-2.44 4.95-9.63 18.9-15.97 31-6.35 12.1-14.83 28.5-18.85 36.45-5.77 11.4-7.47 14.03-8.07 12.5-0.42-1.07-0.79-58.76-0.83-128.2l-0.07-126.25h-17v-6h17v-51c0-28.05-0.34-51-0.76-51-0.97 0-7.36 4.43-23.39 16.21-6.96 5.11-20.91 15.35-31 22.77-10.09 7.41-22.91 16.86-28.49 21-5.57 4.13-12.88 9.5-16.25 11.91l-6.11 4.4v25.71h72v378h148.65l2.02 2.25c2 2.23 14.19 18.16 34.13 44.59 5.66 7.51 12.19 16.11 14.5 19.1 2.31 3 4.79 6.26 5.51 7.25 1.26 1.74-3.95 1.81-140.75 1.81h-142.06v-483.57l2.91-1.72c1.6-0.95 17.92-12.74 36.25-26.21 18.34-13.48 37.16-27.28 41.84-30.68 4.68-3.39 14.47-10.63 21.76-16.08l13.27-9.91 9.6 7.83c5.28 4.31 11.77 9.64 14.42 11.84 2.65 2.2 8.9 7.35 13.88 11.44l9.07 7.43v30.51l5.25 4.02c6.58 5.02 11.84 8.88 23.25 17.04 4.95 3.54 13.95 10.1 20 14.58 6.05 4.49 11.98 8.68 13.18 9.32 1.21 0.64 5.71 1.16 10.01 1.16h7.83l3.65-6.91c2.01-3.8 10.75-20.75 19.41-37.67l15.76-30.77-1.77-3.07c-5.95-10.37-16.65-32.89-15.93-33.56 0.47-0.44 1.84-1.09 3.03-1.45 1.96-0.59 2.87 0.71 9.34 13.32 3.95 7.69 7.76 14.78 8.47 15.75 1.15 1.57 2.17 0.04 8.88-13.35 4.16-8.32 8.02-15.41 8.57-15.74 1.28-0.8 5.07 1.56 5.07 3.15 0 1.11-1.76 4.61-13.13 26.14-2.13 4.03-3.87 8.13-3.87 9.1 0 0.97 4.39 10.27 9.75 20.66 5.36 10.39 13.8 26.77 18.75 36.4l9 17.5 86.5 0.52v5.98h-41c-22.55 0-41 0.28-41 0.62 0 1.09 26.86 53.83 31 60.88 0.97 1.65 6.25 11.77 11.74 22.5 5.48 10.73 14.99 29.23 21.13 41.12l11.16 21.62-1.94 2.38q-1.95 2.39-2.95 1.38c-0.55-0.55-3.77-6.4-7.17-13-3.39-6.6-9.9-19.2-14.45-28-36.1-69.76-49.05-94.54-53.43-102.25l-4.12-7.25h-14.92c-8.21 0-15.16 0.37-15.45 0.83-0.46 0.75 11.26 24.2 20.58 41.17 1.96 3.57 8.08 15.27 13.59 26 5.52 10.73 11.71 22.65 13.76 26.5 2.05 3.85 6.88 13.08 10.74 20.5 3.85 7.42 10.83 20.68 15.51 29.46 4.68 8.77 12.1 23.17 16.5 32 9.27 18.57 41.9 81.36 49.92 96.04 3.01 5.5 8.3 15.4 11.76 22 5.5 10.49 11.94 22.41 12.58 23.29 0.26 0.36 42.68-7.17 72.46-12.87 42.57-8.13 49.5-9.6 49.35-10.47-0.09-0.48-9.76-5.23-21.5-10.55-11.74-5.32-23.6-10.7-26.35-11.96-2.75-1.26-11.75-5.3-20-8.97-8.25-3.67-17.59-7.87-20.75-9.32-12.65-5.83-16.5-7.55-22.25-9.97-9.71-4.09-34.98-16.05-37.33-17.68-1.81-1.25-2.03-2-1.34-4.5 1.18-4.22 3.29-3.85 18.67 3.23 17.18 7.92 49.22 22.33 58 26.09 3.85 1.65 17.12 7.57 29.5 13.16 12.38 5.58 29.03 13.08 37 16.66 7.97 3.57 17.42 7.93 21 9.68l6.5 3.18 0.55 30.14-15.27 3.34c-46.64 10.2-44.2 9.37-47.54 16.01-2.23 4.42-2.26 4.98-2 36.43l0.26 31.94 10.5 5.4c34.43 17.69 49.69 25.65 51.71 26.97 2.22 1.45 2.29 1.98 2.29 16.42 0 11.07-0.32 15.01-1.25 15.27-0.69 0.2-10.47 2.73-21.75 5.62-11.28 2.88-27.92 7.25-37 9.7-20.12 5.43-26.82 7.21-48 12.75-9.08 2.37-24.38 6.38-34 8.91-9.62 2.52-17.72 4.56-18 4.52-0.28-0.03-7.45-4.31-15.94-9.51zm-298.3-291.66c3.43-6.74 11.4-22.15 17.72-34.25l11.48-22 0.02-79.75 0.02-79.75h-37v114c0 62.7 0.35 114 0.77 114 0.42 0 3.57-5.51 6.99-12.25zm333.55 287.2c6.7-1.68 18.27-4.8 25.69-6.93 7.42-2.13 21.38-5.9 31-8.38 9.62-2.48 23.8-6.18 31.5-8.22 7.7-2.04 20.53-5.35 28.5-7.37l14.5-3.67 0.3-7.31c0.29-7.18 0.25-7.31-2-6.83-1.27 0.28-10.35 2.6-20.18 5.16-21.42 5.58-28.05 6.47-32.18 4.31-3.84-2-8.04-6.5-9.38-10.03-1.5-3.98-1.45-104.23 0.06-110.23 1.25-4.98 7.42-12.64 12.14-15.08 1.66-0.87 6.9-2.38 11.63-3.38 4.74-0.99 15.3-3.21 23.48-4.92 8.18-1.7 15.27-3.35 15.75-3.65 0.48-0.29 0.88-3.44 0.88-6.98v-0.31c0-3.21 0-4.91-0.84-5.66-0.96-0.84-3.02-0.45-7.4 0.4l-0.37 0.07c-49.79 9.61-121.82 23.18-128.14 24.14l-8.25 1.27v7.82c0 6.95 0.21 7.83 1.85 7.83 1.01 0 10.57-1.61 21.25-3.58 30.44-5.62 31.31-5.63 37.32-0.36 1.14 1 2.09 1.82 2.87 2.77 3.82 4.64 3.77 12.45 3.51 60.23l-0.01 1.44-0.29 53-2.97 5.36c-5.62 10.14-10.32 12.35-47.28 22.18l-16.25 4.32v7.82c0 4.3 0.25 7.82 0.56 7.82 0.31 0 6.04-1.37 12.75-3.05zm-293.29-364.21c1.39-2.88 6.29-12.44 10.89-21.24 4.6-8.8 13.43-25.67 19.61-37.5 6.18-11.82 15.28-29.15 20.23-38.5 4.95-9.35 11.75-22.22 15.12-28.59 3.37-6.38 6.13-11.89 6.13-12.25 0-0.36-17.1-0.66-38-0.66h-38v72c0 39.6 0.34 71.99 0.75 71.99 0.41-0.01 1.88-2.37 3.27-5.25zm164.98 83.61c0-0.74-11.6-24.63-32.63-67.23l-14.13-28.62-17.26 35c-19.63 39.83-28.98 59.39-28.98 60.64 0 0.47 20.92 0.86 46.5 0.86 25.58 0 46.5-0.29 46.5-0.65zm-176.13-301.85l-6.18-5.2c-11.88-9.98-28.92-23.3-29.8-23.3-0.51 0-0.89 21.96-0.89 51v51h37zm127.62 70.75c1.26-2.87 1.86-2.83 3.51 0.25 1.34 2.5 1.34 2.5 16.67 2.5 11 0 15.33-0.33 15.33-1.16 0-1.27-30.54-61.54-32.22-63.59-0.56-0.69-1.35-1.25-1.75-1.25-0.4 0-4.14 6.64-8.31 14.75-4.17 8.11-11.44 22.18-16.16 31.25-4.72 9.07-8.83 17.3-9.14 18.28-0.53 1.65 0.48 1.75 15.25 1.5 15.33-0.27 15.86-0.35 16.82-2.53zm154.51 344.81v-7.94l-12.25-6.92c-6.74-3.8-16.08-8.97-20.75-11.48-10.95-5.89-29.14-16.14-40.17-22.62l-8.67-5.1-15.83 0.03q-1.15 0-2.21 0c-7.61 0.01-11.46 0.02-11.7 0.93-0.23 0.94 3.33 2.84 10.54 6.68q0.98 0.52 2.04 1.09c18.41 9.83 45.74 24.7 72 39.16 14.03 7.73 25.84 14.06 26.25 14.08 0.41 0.02 0.75-3.54 0.75-7.91zm-226-342.9c0-0.47-8.44-6.87-18.75-14.23-10.31-7.36-20.7-14.86-23.08-16.66l-0.16-0.12c-2.76-2.09-4.43-3.35-5.45-2.95-1.56 0.62-1.56 5.2-1.56 16.85v17.95h24.5c13.48 0 24.5-0.38 24.5-0.84zm354.34 457.81c8.16-2.06 15.24-4.15 15.75-4.66 0.55-0.55-8.27-5.71-22.34-13.06l-23.25-12.14-0.28 14.46c-0.17 9.08 0.13 15.22 0.82 16.5 2.54 4.75 6.71 4.6 29.3-1.1z"></path>
		<path class="s1" d="m107 671v-28h3 3v13c0 7.15 0.19 13 0.42 13 0.23 0 6.32-3.21 13.54-7.13 7.21-3.92 13.4-6.84 13.74-6.5 0.34 0.34 0.1 2.36-0.54 4.49-0.64 2.13-1.16 4.61-1.16 5.51 0 1.51 9.57 1.62 122.25 1.38 108.08-0.22 122.21-0.42 121.88-1.75-0.86-3.5-1.34-10-0.74-10 0.78 0 11.53 5.51 20.44 10.47 3.48 1.94 6.52 3.53 6.75 3.53 0.23 0 0.42-5.85 0.42-13v-13h3 3v27.5 27.5h-3-3v-12c0-6.6-0.4-12-0.89-12-0.49 0-6.5 2.92-13.35 6.5-6.85 3.58-12.79 6.5-13.19 6.5-0.7 0-0.03-6.34 1.07-10.25 0.47-1.66-5.83-1.75-122.19-1.75h-122.68l0.62 2.75c1.7 7.48 1.83 9.25 0.73 9.25-0.63 0-6.66-2.81-13.39-6.24-6.72-3.43-12.57-6.39-12.98-6.58-0.41-0.19-0.75 5.32-0.75 12.24v12.58h-3-3zm-72-48.5v-2.5h12.5c6.88 0 12.5-0.24 12.5-0.54 0-0.3-2.92-6.32-6.5-13.39-3.58-7.06-6.5-13.4-6.5-14.07 0-0.79 0.8-1.01 2.25-0.62 1.24 0.34 3.94 0.9 6 1.25l3.75 0.63v-194.26-194.26l-3.75 0.63c-2.06 0.35-4.76 0.91-6 1.25q-3.93 1.09-0.93-4.62c0.72-1.38 3.05-5.88 5.18-10 2.13-4.12 4.69-8.69 5.69-10.15 0.99-1.46 1.81-2.93 1.81-3.25 0-0.33-5.85-0.6-13-0.6h-13v-3-3h28 28v3 3h-13c-7.15 0-13 0.29-13 0.65 0 0.35 2.93 6.39 6.5 13.42 3.57 7.03 6.5 13.33 6.5 13.99 0 1.17-1.65 1.05-9.25-0.67l-2.75-0.62v194.19 194.2l3-0.58c1.65-0.32 4.35-0.84 6-1.16 1.86-0.36 3-0.16 3 0.51 0 0.61-2.93 6.94-6.5 14.07-3.57 7.13-6.5 13.2-6.5 13.49 0 0.28 5.85 0.51 13 0.51h13v2.5 2.5h-28-28z"></path>
	</g>
</svg></svg></g></g><defs><clipPath id="SvgjsClipPath1555"><rect width="1000" height="1000" x="0" y="0" rx="200" ry="200"></rect></clipPath></defs></svg></g><g id="dark-icon"><svg xmlns="http://www.w3.org/2000/svg" version="1.1" xmlns:xlink="http://www.w3.org/1999/xlink" width="1000" height="1000"><g><g transform="matrix(1.3440860215053763,0,0,1.3440860215053763,5.684341886080802e-14,5.684341886080802e-14)"><svg xmlns="http://www.w3.org/2000/svg" version="1.1" xmlns:xlink="http://www.w3.org/1999/xlink" width="744" height="744"><svg version="1.2" xmlns="http://www.w3.org/2000/svg" viewBox="0 0 744 744" width="744" height="744">
	<style>
		.s0 { fill: #f2c41f } 
		.s1 { fill: #eeeeee } 
	</style>
	<g>
		<path class="s0" d="m533.06 685.41c-8.49-5.2-17.27-10.51-19.5-11.8-13.42-7.79-31.59-18.46-57.56-33.82-16.23-9.6-33.85-20-39.17-23.11-8.56-5-10.32-6.54-15.27-13.32-3.08-4.21-5.37-7.88-5.1-8.16 0.66-0.66 10.61 4.65 23.04 12.28 5.5 3.38 17.2 10.35 26 15.49 8.8 5.14 34.76 20.53 57.69 34.19 22.94 13.66 41.95 24.84 42.25 24.84 0.31 0 0.56-3.32 0.56-7.38v-7.37l-13.25-7.82c-7.29-4.29-29.9-17.69-50.25-29.76-20.35-12.08-43.75-25.88-52-30.68-41.09-23.88-53.19-31.27-55.32-33.77-5.64-6.6-10.41-13.32-9.86-13.87 0.67-0.67 13.93 6.57 32.68 17.84 6.88 4.14 20.38 12.14 30 17.78 9.62 5.65 23.12 13.66 30 17.8 12.1 7.29 22.23 13.32 45.67 27.14 6.15 3.62 18.93 11.26 28.4 16.97 9.48 5.71 18.04 10.6 19.02 10.85 0.99 0.26 6.66-0.97 12.6-2.74 5.95-1.77 16.43-4.75 23.31-6.62 6.88-1.87 13.14-3.64 13.93-3.92 2.65-0.97 1.71-1.57-26.93-17.37-7.57-4.17-22.87-12.66-40.81-22.64-6.98-3.88-21.92-12.17-33.19-18.42-11.27-6.25-22.08-12.25-24-13.33-1.92-1.08-6.42-3.55-10-5.49-6.57-3.55-12.66-6.96-48-26.92-22.18-12.52-43.34-24.33-56.5-31.54-22.01-12.05-22.87-12.94-13.84-14.31 3.96-0.6 5.58 0.16 34.5 16.11 47.95 26.46 74.4 41.12 101.84 56.43 14.02 7.83 28.37 15.79 31.88 17.69 3.5 1.89 12.28 6.86 19.5 11.02 24.15 13.94 72.94 40.32 74.56 40.32 0.56 0 1.37-1.24 1.79-2.75 0.42-1.51 0.77-26.03 0.77-54.48v-51.72l-2.71-2.71-2.71-2.71-7.79 1.19c-4.28 0.65-17.49 3.02-29.35 5.26l-21.56 4.08-13.44-7.42c-7.39-4.07-21.54-11.83-31.44-17.23-9.9-5.41-28.35-15.54-41-22.51-12.65-6.98-29.15-15.91-36.67-19.84l-13.66-7.16h-95.71l-6.82 13.25c-3.74 7.29-11.13 21.8-16.41 32.25-5.28 10.45-10.08 19.33-10.66 19.73-1.36 0.94-72.47 0.87-74.84-0.07-0.35-0.14-0.68-0.16-0.87-0.33-0.81-0.76 1.14-4.49 16.66-34.22q1.97-3.76 4.23-8.11c6.89-13.2 16-30.52 20.25-38.5 4.26-7.98 13.94-26.42 21.52-41 7.58-14.58 22.42-42.92 32.98-63 10.56-20.08 25.4-48.42 32.99-63 7.58-14.58 18.98-36.4 25.31-48.5 13.67-26.09 11.67-22.21 19.13-37.17 3.34-6.7 6.07-12.44 6.07-12.75 0-0.32-6.94-0.58-15.41-0.58h-15.42l-7.74 14.75c-21.3 40.56-38.87 74.21-54.16 103.75-7.98 15.4-16.87 32.27-19.77 37.5-2.9 5.23-7.27 13.55-9.71 18.5-2.44 4.95-9.63 18.9-15.97 31-6.35 12.1-14.83 28.5-18.85 36.45-5.77 11.4-7.47 14.03-8.07 12.5-0.42-1.07-0.79-58.76-0.83-128.2l-0.07-126.25h-17v-6h17v-51c0-28.05-0.34-51-0.76-51-0.97 0-7.36 4.43-23.39 16.21-6.96 5.11-20.91 15.35-31 22.77-10.09 7.41-22.91 16.86-28.49 21-5.57 4.13-12.88 9.5-16.25 11.91l-6.11 4.4v25.71h72v378h148.65l2.02 2.25c2 2.23 14.19 18.16 34.13 44.59 5.66 7.51 12.19 16.11 14.5 19.1 2.31 3 4.79 6.26 5.51 7.25 1.26 1.74-3.95 1.81-140.75 1.81h-142.06v-483.57l2.91-1.72c1.6-0.95 17.92-12.74 36.25-26.21 18.34-13.48 37.16-27.28 41.84-30.68 4.68-3.39 14.47-10.63 21.76-16.08l13.27-9.91 9.6 7.83c5.28 4.31 11.77 9.64 14.42 11.84 2.65 2.2 8.9 7.35 13.88 11.44l9.07 7.43v30.51l5.25 4.02c6.58 5.02 11.84 8.88 23.25 17.04 4.95 3.54 13.95 10.1 20 14.58 6.05 4.49 11.98 8.68 13.18 9.32 1.21 0.64 5.71 1.16 10.01 1.16h7.83l3.65-6.91c2.01-3.8 10.75-20.75 19.41-37.67l15.76-30.77-1.77-3.07c-5.95-10.37-16.65-32.89-15.93-33.56 0.47-0.44 1.84-1.09 3.03-1.45 1.96-0.59 2.87 0.71 9.34 13.32 3.95 7.69 7.76 14.78 8.47 15.75 1.15 1.57 2.17 0.04 8.88-13.35 4.16-8.32 8.02-15.41 8.57-15.74 1.28-0.8 5.07 1.56 5.07 3.15 0 1.11-1.76 4.61-13.13 26.14-2.13 4.03-3.87 8.13-3.87 9.1 0 0.97 4.39 10.27 9.75 20.66 5.36 10.39 13.8 26.77 18.75 36.4l9 17.5 86.5 0.52v5.98h-41c-22.55 0-41 0.28-41 0.62 0 1.09 26.86 53.83 31 60.88 0.97 1.65 6.25 11.77 11.74 22.5 5.48 10.73 14.99 29.23 21.13 41.12l11.16 21.62-1.94 2.38q-1.95 2.39-2.95 1.38c-0.55-0.55-3.77-6.4-7.17-13-3.39-6.6-9.9-19.2-14.45-28-36.1-69.76-49.05-94.54-53.43-102.25l-4.12-7.25h-14.92c-8.21 0-15.16 0.37-15.45 0.83-0.46 0.75 11.26 24.2 20.58 41.17 1.96 3.57 8.08 15.27 13.59 26 5.52 10.73 11.71 22.65 13.76 26.5 2.05 3.85 6.88 13.08 10.74 20.5 3.85 7.42 10.83 20.68 15.51 29.46 4.68 8.77 12.1 23.17 16.5 32 9.27 18.57 41.9 81.36 49.92 96.04 3.01 5.5 8.3 15.4 11.76 22 5.5 10.49 11.94 22.41 12.58 23.29 0.26 0.36 42.68-7.17 72.46-12.87 42.57-8.13 49.5-9.6 49.35-10.47-0.09-0.48-9.76-5.23-21.5-10.55-11.74-5.32-23.6-10.7-26.35-11.96-2.75-1.26-11.75-5.3-20-8.97-8.25-3.67-17.59-7.87-20.75-9.32-12.65-5.83-16.5-7.55-22.25-9.97-9.71-4.09-34.98-16.05-37.33-17.68-1.81-1.25-2.03-2-1.34-4.5 1.18-4.22 3.29-3.85 18.67 3.23 17.18 7.92 49.22 22.33 58 26.09 3.85 1.65 17.12 7.57 29.5 13.16 12.38 5.58 29.03 13.08 37 16.66 7.97 3.57 17.42 7.93 21 9.68l6.5 3.18 0.55 30.14-15.27 3.34c-46.64 10.2-44.2 9.37-47.54 16.01-2.23 4.42-2.26 4.98-2 36.43l0.26 31.94 10.5 5.4c34.43 17.69 49.69 25.65 51.71 26.97 2.22 1.45 2.29 1.98 2.29 16.42 0 11.07-0.32 15.01-1.25 15.27-0.69 0.2-10.47 2.73-21.75 5.62-11.28 2.88-27.92 7.25-37 9.7-20.12 5.43-26.82 7.21-48 12.75-9.08 2.37-24.38 6.38-34 8.91-9.62 2.52-17.72 4.56-18 4.52-0.28-0.03-7.45-4.31-15.94-9.51zm-298.3-291.66c3.43-6.74 11.4-22.15 17.72-34.25l11.48-22 0.02-79.75 0.02-79.75h-37v114c0 62.7 0.35 114 0.77 114 0.42 0 3.57-5.51 6.99-12.25zm333.55 287.2c6.7-1.68 18.27-4.8 25.69-6.93 7.42-2.13 21.38-5.9 31-8.38 9.62-2.48 23.8-6.18 31.5-8.22 7.7-2.04 20.53-5.35 28.5-7.37l14.5-3.67 0.3-7.31c0.29-7.18 0.25-7.31-2-6.83-1.27 0.28-10.35 2.6-20.18 5.16-21.42 5.58-28.05 6.47-32.18 4.31-3.84-2-8.04-6.5-9.38-10.03-1.5-3.98-1.45-104.23 0.06-110.23 1.25-4.98 7.42-12.64 12.14-15.08 1.66-0.87 6.9-2.38 11.63-3.38 4.74-0.99 15.3-3.21 23.48-4.92 8.18-1.7 15.27-3.35 15.75-3.65 0.48-0.29 0.88-3.44 0.88-6.98v-0.31c0-3.21 0-4.91-0.84-5.66-0.96-0.84-3.02-0.45-7.4 0.4l-0.37 0.07c-49.79 9.61-121.82 23.18-128.14 24.14l-8.25 1.27v7.82c0 6.95 0.21 7.83 1.85 7.83 1.01 0 10.57-1.61 21.25-3.58 30.44-5.62 31.31-5.63 37.32-0.36 1.14 1 2.09 1.82 2.87 2.77 3.82 4.64 3.77 12.45 3.51 60.23l-0.01 1.44-0.29 53-2.97 5.36c-5.62 10.14-10.32 12.35-47.28 22.18l-16.25 4.32v7.82c0 4.3 0.25 7.82 0.56 7.82 0.31 0 6.04-1.37 12.75-3.05zm-293.29-364.21c1.39-2.88 6.29-12.44 10.89-21.24 4.6-8.8 13.43-25.67 19.61-37.5 6.18-11.82 15.28-29.15 20.23-38.5 4.95-9.35 11.75-22.22 15.12-28.59 3.37-6.38 6.13-11.89 6.13-12.25 0-0.36-17.1-0.66-38-0.66h-38v72c0 39.6 0.34 71.99 0.75 71.99 0.41-0.01 1.88-2.37 3.27-5.25zm164.98 83.61c0-0.74-11.6-24.63-32.63-67.23l-14.13-28.62-17.26 35c-19.63 39.83-28.98 59.39-28.98 60.64 0 0.47 20.92 0.86 46.5 0.86 25.58 0 46.5-0.29 46.5-0.65zm-176.13-301.85l-6.18-5.2c-11.88-9.98-28.92-23.3-29.8-23.3-0.51 0-0.89 21.96-0.89 51v51h37zm127.62 70.75c1.26-2.87 1.86-2.83 3.51 0.25 1.34 2.5 1.34 2.5 16.67 2.5 11 0 15.33-0.33 15.33-1.16 0-1.27-30.54-61.54-32.22-63.59-0.56-0.69-1.35-1.25-1.75-1.25-0.4 0-4.14 6.64-8.31 14.75-4.17 8.11-11.44 22.18-16.16 31.25-4.72 9.07-8.83 17.3-9.14 18.28-0.53 1.65 0.48 1.75 15.25 1.5 15.33-0.27 15.86-0.35 16.82-2.53zm154.51 344.81v-7.94l-12.25-6.92c-6.74-3.8-16.08-8.97-20.75-11.48-10.95-5.89-29.14-16.14-40.17-22.62l-8.67-5.1-15.83 0.03q-1.15 0-2.21 0c-7.61 0.01-11.46 0.02-11.7 0.93-0.23 0.94 3.33 2.84 10.54 6.68q0.98 0.52 2.04 1.09c18.41 9.83 45.74 24.7 72 39.16 14.03 7.73 25.84 14.06 26.25 14.08 0.41 0.02 0.75-3.54 0.75-7.91zm-226-342.9c0-0.47-8.44-6.87-18.75-14.23-10.31-7.36-20.7-14.86-23.08-16.66l-0.16-0.12c-2.76-2.09-4.43-3.35-5.45-2.95-1.56 0.62-1.56 5.2-1.56 16.85v17.95h24.5c13.48 0 24.5-0.38 24.5-0.84zm354.34 457.81c8.16-2.06 15.24-4.15 15.75-4.66 0.55-0.55-8.27-5.71-22.34-13.06l-23.25-12.14-0.28 14.46c-0.17 9.08 0.13 15.22 0.82 16.5 2.54 4.75 6.71 4.6 29.3-1.1z"></path>
		<path class="s1" d="m107 671v-28h3 3v13c0 7.15 0.19 13 0.42 13 0.23 0 6.32-3.21 13.54-7.13 7.21-3.92 13.4-6.84 13.74-6.5 0.34 0.34 0.1 2.36-0.54 4.49-0.64 2.13-1.16 4.61-1.16 5.51 0 1.51 9.57 1.62 122.25 1.38 108.08-0.22 122.21-0.42 121.88-1.75-0.86-3.5-1.34-10-0.74-10 0.78 0 11.53 5.51 20.44 10.47 3.48 1.94 6.52 3.53 6.75 3.53 0.23 0 0.42-5.85 0.42-13v-13h3 3v27.5 27.5h-3-3v-12c0-6.6-0.4-12-0.89-12-0.49 0-6.5 2.92-13.35 6.5-6.85 3.58-12.79 6.5-13.19 6.5-0.7 0-0.03-6.34 1.07-10.25 0.47-1.66-5.83-1.75-122.19-1.75h-122.68l0.62 2.75c1.7 7.48 1.83 9.25 0.73 9.25-0.63 0-6.66-2.81-13.39-6.24-6.72-3.43-12.57-6.39-12.98-6.58-0.41-0.19-0.75 5.32-0.75 12.24v12.58h-3-3zm-72-48.5v-2.5h12.5c6.88 0 12.5-0.24 12.5-0.54 0-0.3-2.92-6.32-6.5-13.39-3.58-7.06-6.5-13.4-6.5-14.07 0-0.79 0.8-1.01 2.25-0.62 1.24 0.34 3.94 0.9 6 1.25l3.75 0.63v-194.26-194.26l-3.75 0.63c-2.06 0.35-4.76 0.91-6 1.25q-3.93 1.09-0.93-4.62c0.72-1.38 3.05-5.88 5.18-10 2.13-4.12 4.69-8.69 5.69-10.15 0.99-1.46 1.81-2.93 1.81-3.25 0-0.33-5.85-0.6-13-0.6h-13v-3-3h28 28v3 3h-13c-7.15 0-13 0.29-13 0.65 0 0.35 2.93 6.39 6.5 13.42 3.57 7.03 6.5 13.33 6.5 13.99 0 1.17-1.65 1.05-9.25-0.67l-2.75-0.62v194.19 194.2l3-0.58c1.65-0.32 4.35-0.84 6-1.16 1.86-0.36 3-0.16 3 0.51 0 0.61-2.93 6.94-6.5 14.07-3.57 7.13-6.5 13.2-6.5 13.49 0 0.28 5.85 0.51 13 0.51h13v2.5 2.5h-28-28z"></path>
	</g>
</svg></svg></g></g></svg></g></svg>